# xmcd CD database file
#
# Track frame offsets:
#	150
#	11933
#	32416
#	43315
#	58668
#	72719
#	98719
#	113190
#	146619
#	160073
#	191506
#	221999
#	241069
#	263335
#	282846
#	315152
#
# Disc length: 4474 seconds
#
# Revision: 0
# Processed by: cddbd v1.5.2PL0 Copyright (c) Steve Scherf et al.
# Submitted via: CDex 1.51
#
DISCID=e3117810
DTITLE=Various Artist - Simply Cool Jazz [CD1]
DYEAR=2014
DGENRE=Jazz
TTITLE0=Miles Davis - Milestones
TTITLE1=John Coltrane - B.J.
TTITLE2=Mel Tormé - Sophisticated Lady
TTITLE3=Lester Young - Blue Lester
TTITLE4=Art Pepper - Everything Happens To Me
TTITLE5=Donald Byrd - That's All There Is To Love
TTITLE6=Red Garland - The Second Time Around
TTITLE7=Booker Ervin - You Don't Know What Love Is
TTITLE8=Erroll Garner - All The Things You Are
TTITLE9=Houston Person and Teddy Edwards - The Girl From Ipanema
TTITLE10=Mulgrew Miller - One's Own Room
TTITLE11=Frank Wess - Baubles, Bangles And Beads
TTITLE12=Joanna Eden - The Nearness Of You
TTITLE13=David 'Fathead' Newman - Everything Must Change
TTITLE14=Renee Rosnes - Nature Boy
TTITLE15=EJQ - Easy Dreaming
EXTD=YEAR: 2014
EXTT0=
EXTT1=
EXTT2=
EXTT3=
EXTT4=
EXTT5=
EXTT6=
EXTT7=
EXTT8=
EXTT9=
EXTT10=
EXTT11=
EXTT12=
EXTT13=
EXTT14=
EXTT15=
PLAYORDER=
